<?xml version="1.0" encoding="UTF-8"?>
<svg id="Layer_2" data-name="Layer 2" xmlns="http://www.w3.org/2000/svg" viewBox="0 0 586.86 197.62">
  <g id="_Слой_1" data-name="Слой 1">
    <g>
      <g>
        <path d="M196.51,168.68c.96-28.72,43.4-12.36,26.04-7.27-6.18-8.47-20.57-3.72-20.01,7.27-.58,11.12,13.81,15.79,20.01,7.33,17.33,4.96-25.04,21.56-26.05-7.33Z"/>
        <path d="M262.7,168.68c-.81-21.99,35.14-22.04,34.3,0,.83,22.11-35.1,22.06-34.3,0Zm28.26,0c.54-15.27-22.74-15.23-22.22,0-.51,15.3,22.76,15.34,22.22,0Z"/>
        <path d="M333.13,139.36c.46,.35,5.62-.64,5.45,.53,0,0,0,45.13,0,45.13,.19,1.11-5.01,.29-5.45,.53-1.42,.17-.08-45.17-.53-45.66,0-.29,.24-.53,.53-.53Z"/>
        <path d="M374.6,139.36c.46,.35,5.62-.64,5.45,.53,0,0,0,45.13,0,45.13,.19,1.11-5.01,.29-5.45,.53-1.42,.17-.08-45.17-.53-45.66,0-.29,.24-.53,.53-.53Z"/>
        <path d="M447.8,170.67h-25.67c-1.76,8.96,14.82,13.02,20.45,6.09,8.97,4.1-3.47,9.11-9.31,8.79-22.92,1.26-23.22-34.17-1.18-33.68,9.62-.44,18.49,9.1,15.7,18.8Zm-25.68-4.29h19.94c1.9-12.27-21.82-12.32-19.94,0Z"/>
        <path d="M518.05,152.18c1.49-.11,.04,27.98,.53,28.51,0,11.64-5.91,16.93-17.12,16.93-5.64-.22-13.15-1.31-15.51-5.31,0,0,2.31-3.71,2.31-3.71,8.29,5.09,26.29,6.7,24.34-8.57-11.81,7.88-31.9,2.61-28.31-15.65,2.65-14.11,19.71-14.6,28.62-8.51-.54-5.41,1.2-3.32,5.14-3.7Zm-5.32,15.63c.63-14.11-23.37-14.05-22.72,0-.62,14.09,23.33,14.15,22.72,0Z"/>
        <path d="M586.34,170.67h-25.67c-1.76,8.96,14.82,13.02,20.45,6.09,8.97,4.1-3.47,9.11-9.31,8.79-22.92,1.26-23.22-34.17-1.18-33.68,9.62-.44,18.49,9.1,15.7,18.8Zm-25.68-4.29h19.94c1.9-12.27-21.82-12.32-19.94,0Z"/>
      </g>
      <g>
        <path d="M23.84,118.2H0V3.35H23.84V118.2Z"/>
        <path d="M129.73,3.35V23.69h-34.36V118.2h-24.15V23.69H36.7V3.35h93.03Z"/>
        <path d="M219.42,82.75c.74,5.25,2.2,9.17,4.38,11.77,3.98,4.73,10.79,7.09,20.45,7.09,5.78,0,10.47-.62,14.08-1.87,6.84-2.39,10.26-6.83,10.26-13.32,0-3.79-1.68-6.73-5.03-8.8-3.35-2.03-8.67-3.82-15.95-5.38l-12.43-2.73c-12.22-2.7-20.62-5.64-25.19-8.8-7.74-5.3-11.61-13.58-11.61-24.85,0-10.28,3.79-18.83,11.36-25.63,7.57-6.8,18.69-10.21,33.37-10.21,12.25,0,22.7,3.21,31.35,9.62,8.65,6.42,13.18,15.73,13.61,27.93h-23.06c-.43-6.91-3.51-11.82-9.27-14.73-3.83-1.92-8.6-2.88-14.3-2.88-6.34,0-11.4,1.25-15.18,3.74-3.78,2.49-5.67,5.97-5.67,10.44,0,4.1,1.86,7.17,5.59,9.19,2.4,1.35,7.48,2.94,15.26,4.75l20.15,4.75c8.83,2.08,15.45,4.86,19.86,8.34,6.85,5.4,10.27,13.22,10.27,23.45s-4.06,19.21-12.17,26.14c-8.11,6.93-19.57,10.4-34.38,10.4s-27.01-3.42-35.68-10.25c-8.66-6.83-12.99-16.22-12.99-28.17h22.91Z"/>
        <path d="M392.01,3.35V23.69h-34.36V118.2h-24.15V23.69h-34.52V3.35h93.03Z"/>
        <path d="M576.77,68.49c-6.72,5.61-16.32,8.41-28.8,8.41h-23.91v41.3h-23.84V3.35h49.31c11.37,0,20.43,2.96,27.19,8.88,6.76,5.92,10.14,15.09,10.14,27.5,0,13.56-3.36,23.14-10.09,28.75Zm-18.32-41.37c-3.04-2.54-7.3-3.82-12.77-3.82h-21.63V57.11h21.63c5.48,0,9.73-1.38,12.77-4.13,3.04-2.75,4.56-7.12,4.56-13.09s-1.52-10.23-4.56-12.78Z"/>
        <polygon points="416.64 97.55 416.64 97.53 393.94 97.53 393.94 118.2 478.17 118.2 478.17 97.55 416.64 97.55"/>
        <polygon points="425.66 50.67 419.72 50.67 413.86 50.67 413.86 70.61 419.72 70.61 425.76 70.61 479.02 70.61 479.02 50.67 425.66 50.67"/>
        <rect x="433.81" y="3.35" width="44.36" height="20.34"/>
      </g>
    </g>
  </g>
</svg>